<?xml version="1.0" encoding="utf-8"?>
<!-- Generator: Adobe Illustrator 25.3.1, SVG Export Plug-In . SVG Version: 6.00 Build 0)  -->
<svg version="1.1" id="Layer_1" xmlns="http://www.w3.org/2000/svg" xmlns:xlink="http://www.w3.org/1999/xlink" x="0px" y="0px"
	 viewBox="0 0 2500 2500" style="enable-background:new 0 0 2500 2500;" xml:space="preserve">
<style type="text/css">
	.st0{fill:#CC2131;}
</style>
<circle cx="731.5" cy="1017.3" r="2"/>
<circle cx="740" cy="1027.3" r="3.1"/>
<circle cx="748.4" cy="1037.4" r="4"/>
<circle cx="732.9" cy="997.8" r="2"/>
<circle cx="741.5" cy="1007.9" r="3.1"/>
<circle cx="742.9" cy="988.4" r="2.8"/>
<circle cx="749.9" cy="1018" r="4"/>
<circle cx="752.9" cy="978.9" r="2"/>
<circle cx="751.4" cy="998.5" r="3.6"/>
<circle cx="730" cy="1036.7" r="2"/>
<circle cx="738.5" cy="1046.8" r="3.1"/>
<circle cx="747" cy="1056.9" r="4"/>
<circle cx="728.5" cy="1056.2" r="2"/>
<circle cx="737" cy="1066.3" r="3.1"/>
<circle cx="745.5" cy="1076.4" r="4"/>
<circle cx="727" cy="1075.6" r="2"/>
<circle cx="735.5" cy="1085.7" r="3.1"/>
<circle cx="744" cy="1095.8" r="4"/>
<circle cx="725.5" cy="1095.1" r="2"/>
<circle cx="734.1" cy="1105.2" r="3.1"/>
<circle cx="742.5" cy="1115.3" r="4.1"/>
<circle cx="724.1" cy="1114.6" r="2"/>
<circle cx="732.6" cy="1124.7" r="3.1"/>
<circle cx="722.6" cy="1134" r="2"/>
<circle cx="741.1" cy="1134.8" r="4"/>
<circle cx="731.1" cy="1144.1" r="3.1"/>
<circle cx="721.1" cy="1153.5" r="2"/>
<circle cx="741" cy="1134.8" r="4"/>
<circle cx="729.7" cy="1163.6" r="3.1"/>
<circle cx="719.7" cy="1172.9" r="2"/>
<circle cx="739.6" cy="1154.2" r="4"/>
<circle cx="728.2" cy="1183" r="3.1"/>
<circle cx="718.2" cy="1192.4" r="2"/>
<circle cx="738" cy="1173.6" r="4"/>
<circle cx="726.6" cy="1202.5" r="3.1"/>
<circle cx="716.6" cy="1211.8" r="2"/>
<circle cx="736.4" cy="1193.1" r="4"/>
<circle cx="725.1" cy="1221.9" r="3.1"/>
<circle cx="715.1" cy="1231.3" r="2"/>
<circle cx="735" cy="1212.6" r="4"/>
<circle cx="723.7" cy="1241.4" r="3.1"/>
<circle cx="713.6" cy="1250.8" r="2"/>
<circle cx="733.5" cy="1232" r="4.1"/>
<circle cx="732" cy="1251.5" r="4"/>
<circle cx="722.1" cy="1260.8" r="3.1"/>
<circle cx="730.6" cy="1271" r="4"/>
<circle cx="712" cy="1270.2" r="2"/>
<circle cx="720.6" cy="1280.3" r="3.1"/>
<circle cx="729.1" cy="1290.4" r="4.1"/>
<circle cx="710.6" cy="1289.7" r="2.1"/>
<circle cx="719.1" cy="1299.8" r="3.1"/>
<circle cx="727.5" cy="1309.9" r="4"/>
<circle cx="709.1" cy="1309.1" r="2"/>
<circle cx="717.6" cy="1319.2" r="3.1"/>
<circle cx="726.1" cy="1329.3" r="4"/>
<circle cx="707.6" cy="1328.6" r="2"/>
<circle cx="716.2" cy="1338.7" r="3.1"/>
<circle cx="724.6" cy="1348.8" r="4"/>
<circle cx="706.1" cy="1348" r="2"/>
<circle cx="714.6" cy="1358.1" r="3.1"/>
<circle cx="723.1" cy="1368.3" r="4"/>
<circle cx="704.6" cy="1367.5" r="2"/>
<circle cx="713.2" cy="1377.6" r="3.1"/>
<circle cx="721.6" cy="1387.7" r="4"/>
<circle cx="703.2" cy="1386.9" r="2.1"/>
<circle cx="711.6" cy="1397" r="3.1"/>
<circle cx="720.2" cy="1407.2" r="4"/>
<circle cx="701.6" cy="1406.4" r="2"/>
<circle cx="710.2" cy="1416.5" r="3.1"/>
<circle cx="718.6" cy="1426.6" r="4"/>
<circle cx="700.2" cy="1425.9" r="2"/>
<circle cx="708.7" cy="1436" r="3.1"/>
<circle cx="717.1" cy="1446.1" r="4"/>
<circle cx="698.7" cy="1445.3" r="2"/>
<circle cx="707.2" cy="1455.4" r="3.1"/>
<circle cx="715.7" cy="1465.5" r="4"/>
<circle cx="697.2" cy="1464.7" r="2"/>
<circle cx="705.8" cy="1474.9" r="3.1"/>
<circle cx="714.2" cy="1484.9" r="4"/>
<circle cx="695.7" cy="1484.3" r="2"/>
<circle cx="704.2" cy="1494.3" r="3.1"/>
<circle cx="712.7" cy="1504.5" r="4"/>
<circle cx="692.7" cy="1523.8" r="2.1"/>
<circle cx="694.2" cy="1503.7" r="2"/>
<circle cx="702.7" cy="1513.8" r="3.1"/>
<circle cx="711.2" cy="1523.9" r="4"/>
<circle cx="701.2" cy="1533.9" r="3.1"/>
<circle cx="691.1" cy="1543.9" r="2"/>
<circle cx="719" cy="1554.4" r="2"/>
<circle cx="710.5" cy="1544.2" r="3.1"/>
<circle cx="699.7" cy="1554.4" r="2"/>
<circle cx="736.5" cy="1554.4" r="2"/>
<circle cx="727.9" cy="1544.2" r="3.1"/>
<circle cx="719.5" cy="1534.1" r="4"/>
<circle cx="756.5" cy="1554.4" r="2"/>
<circle cx="748" cy="1544.2" r="3.1"/>
<circle cx="739.6" cy="1534.1" r="4"/>
<circle cx="776.6" cy="1554.4" r="2"/>
<circle cx="768.1" cy="1544.2" r="3.1"/>
<circle cx="759.6" cy="1534.1" r="4"/>
<circle cx="796.6" cy="1554.4" r="2"/>
<circle cx="788.1" cy="1544.2" r="3.1"/>
<circle cx="779.7" cy="1534.1" r="4"/>
<circle cx="816.7" cy="1554.4" r="2"/>
<circle cx="808.2" cy="1544.2" r="3.1"/>
<circle cx="799.7" cy="1534.1" r="4"/>
<circle cx="836.8" cy="1554.4" r="2"/>
<circle cx="828.2" cy="1544.2" r="3.1"/>
<circle cx="819.7" cy="1534.1" r="4"/>
<circle cx="856.8" cy="1554.4" r="2"/>
<circle cx="848.2" cy="1544.2" r="3.1"/>
<circle cx="839.7" cy="1534.1" r="4"/>
<circle cx="876.8" cy="1554.4" r="2"/>
<circle cx="868.3" cy="1544.2" r="3.1"/>
<circle cx="859.8" cy="1534.1" r="4"/>
<circle cx="896.8" cy="1554.4" r="2"/>
<circle cx="888.4" cy="1544.2" r="3.1"/>
<circle cx="879.9" cy="1534.1" r="4"/>
<circle cx="916.9" cy="1554.4" r="2"/>
<circle cx="908.4" cy="1544.2" r="3.1"/>
<circle cx="899.9" cy="1534.1" r="4"/>
<circle cx="937" cy="1554.4" r="2"/>
<circle cx="928.4" cy="1544.2" r="3.1"/>
<ellipse transform="matrix(0.1602 -0.9871 0.9871 0.1602 -741.6566 2196.4697)" cx="920" cy="1534.1" rx="4" ry="4"/>
<circle cx="957" cy="1554.4" r="2"/>
<circle cx="948.5" cy="1544.2" r="3.1"/>
<circle cx="940" cy="1534.1" r="4"/>
<circle cx="977.1" cy="1554.4" r="2"/>
<circle cx="968.6" cy="1544.2" r="3.1"/>
<circle cx="960.1" cy="1534.1" r="4"/>
<circle cx="997.1" cy="1554.4" r="2"/>
<circle cx="988.6" cy="1544.2" r="3.1"/>
<circle cx="980.2" cy="1534.1" r="4"/>
<circle cx="1017.2" cy="1554.4" r="2"/>
<circle cx="1008.7" cy="1544.2" r="3.1"/>
<circle cx="1000.2" cy="1534.1" r="4"/>
<circle cx="1037.2" cy="1554.4" r="2"/>
<circle cx="1028.7" cy="1544.2" r="3.1"/>
<circle cx="1020.2" cy="1534.1" r="4"/>
<circle cx="1057.3" cy="1554.4" r="2"/>
<circle cx="1048.7" cy="1544.2" r="3.1"/>
<circle cx="1040.3" cy="1534.1" r="4"/>
<circle cx="1077.3" cy="1554.4" r="2"/>
<circle cx="1068.8" cy="1544.2" r="3.1"/>
<circle cx="1060.3" cy="1534.1" r="4"/>
<circle cx="1097.4" cy="1554.4" r="2"/>
<circle cx="1088.8" cy="1544.2" r="3.1"/>
<circle cx="1080.4" cy="1534.1" r="4"/>
<circle cx="1117.4" cy="1554.4" r="2"/>
<circle cx="1108.9" cy="1544.2" r="3.1"/>
<circle cx="1100.4" cy="1534.1" r="4"/>
<circle cx="1137.5" cy="1554.4" r="2"/>
<circle cx="1128.9" cy="1544.2" r="3.1"/>
<circle cx="1120.5" cy="1534.1" r="4"/>
<circle cx="1157.5" cy="1554.4" r="2"/>
<circle cx="1149" cy="1544.2" r="3.1"/>
<circle cx="1140.5" cy="1534.1" r="4"/>
<circle cx="1177.6" cy="1554.4" r="2"/>
<circle cx="1169" cy="1544.2" r="3.1"/>
<circle cx="1160.6" cy="1534.1" r="4"/>
<circle cx="1197.6" cy="1554.4" r="2"/>
<circle cx="1189.1" cy="1544.2" r="3.1"/>
<circle cx="1180.7" cy="1534.1" r="4"/>
<circle cx="1217.7" cy="1554.4" r="2"/>
<circle cx="1209.1" cy="1544.2" r="3.1"/>
<circle cx="1200.7" cy="1534.1" r="4"/>
<circle cx="1237.7" cy="1554.4" r="2"/>
<circle cx="1229.2" cy="1544.2" r="3.1"/>
<circle cx="1220.7" cy="1534.1" r="4"/>
<circle cx="1257.7" cy="1554.4" r="2"/>
<circle cx="1249.2" cy="1544.2" r="3.1"/>
<circle cx="1277.9" cy="1554.3" r="1.2"/>
<circle cx="1269.3" cy="1544.2" r="2.8"/>
<circle cx="1240.8" cy="1534.1" r="4"/>
<circle cx="1281" cy="1534.1" r="2.1"/>
<circle cx="1260.8" cy="1534.1" r="3.6"/>
<path class="st0" d="M243.6,1419.5c-57.7-0.1-103.4-16.8-132.1-48.6c-29.6-32.6-41.5-80.4-35.6-141.9
	c10.2-105.4,73.2-163.4,177.4-163.3c75.6,0,112.4,19.6,122.6,65.1l-89.5,51.8c1.2-11.2,1.8-22.5,2-33.8c0-20.3-3-34.7-11.4-43.9
	c-6.8-7.5-16.8-11.1-30.9-11.1c-43.5,0-68.1,52.8-73.2,105.1c-5.8,59,8.9,114.2,39.1,147.5c20.2,22.3,46.8,34,77,34h0.1
	c27.9,0,49.7-5.7,69.6-11.8c-0.5,6.3-2.6,27.7-3,30.6C315.9,1412.6,287.1,1419.5,243.6,1419.5L243.6,1419.5z M2347.5,943.6
	l-10.3,129.5l88.3,0.1l-3.4,43.6h-87.9l-16.5,200.2c-0.4,4.6-0.6,9.2-0.6,13.9c0,16.5,3.1,27.5,9.6,34.6
	c7.2,7.7,18.1,11.1,36.7,11.1c11.2,0,25.3-0.7,38.5-4.1l-3.6,44.1c-21.5,2.3-41.9,4-62.4,4h-0.2c-46,0-73.6-7.6-89.3-24.7
	c-11.2-12.1-16.8-29.7-16.8-53.4c0-4.4,0.3-9.2,0.6-14.1l20.4-256.3c0,0,5.8-72.9,6.1-75.9L2347.5,943.6z M1877.2,1381.3
	c-54.3,0-94.1-34.8-118-103.5c-4.4-12.7-6.1-23.6-6.1-23.6l207-120.2c-17.2-44.1-61-67.4-127.1-67.5
	c-105.7,0-163.5,54.1-172.1,161.2c-5,62.5,8,111.1,38.8,144.4c36.7,39.8,89.5,48.1,127.4,48.2c51.9,0,74.9-6.7,116.7-23l2.4-29.8
	C1925.3,1374.5,1901.4,1381.3,1877.2,1381.3L1877.2,1381.3z M1882.5,1137.3l-135.5,78.1c-5.2-35,14-120.7,79.8-120.7
	C1854.3,1094.7,1874.4,1107.4,1882.5,1137.3L1882.5,1137.3z M1520.3,1419.5c-57.7-0.1-103.3-16.8-132.1-48.6
	c-29.6-32.6-41.5-80.4-35.5-141.9c10.2-105.4,73.3-163.4,177.4-163.3c75.6,0,112.4,19.6,122.6,65.1l-89.4,51.7
	c1.1-12.6,1.9-24,1.9-33.8c0-20.3-3-34.7-11.4-43.9c-6.7-7.5-16.8-11.1-30.9-11.1c-43.5,0-68,52.8-73.2,105.1
	c-5.7,59,8.9,114.2,39.1,147.5c20.2,22.3,46.8,34,77,34h0.1c27.8,0,49.7-5.7,69.6-11.8c-0.6,6.3-2.8,27.7-3,30.7
	C1592.6,1412.6,1563.8,1419.5,1520.3,1419.5L1520.3,1419.5z M1230.8,962c-1.2-0.1-2.4-0.2-3.7-0.2H761.8l-43,564.2h583.5l33.9-443.2
	c6.3-60.2-37.4-114-97.6-120.2C1236,962.3,1233.4,962.1,1230.8,962z M1202.7,1405.4h-123l22.1-202.9c4.4-40.1,3.4-70.1-35.7-70.1
	c-70.7,0-97.5,93.4-103,145.2L949.2,1405h-89.8l31.1-286.6l-32.9,0.1l3.8-37.5h122.8l-7.8,72.5h1.6c18.7-26.6,46.1-80.4,127.6-80.4
	c74,0,95.6,39.5,88.1,108.4l-20.1,186.1h32.8L1202.7,1405.4z M2214.3,1065.9c-70.9,1-100.5,25.9-124.1,67.9l4.9-60.7h-86.6
	l-27.1,339.1h86.5l13.9-174.8c5.5-69.7,43.4-111.6,107.2-120.4c6.8-1,14.4-1.3,21.4-0.9L2214.3,1065.9L2214.3,1065.9z M676.2,1106.2
	c-25-27.1-63.3-40.4-117.1-40.4c-111.2,0-169.9,57.9-179.4,177.1c-4.9,61.3,6.1,107.1,32.9,136.1c25.2,27.3,63.7,40.6,117.8,40.6
	h0.1c110.6,0,169-57.9,178.5-177c0.7-9.6,1.1-18.7,1.1-27.4C710.1,1167.3,698.8,1130.6,676.2,1106.2z M614.8,1243
	c-6.5,81.3-17.1,148.5-81.8,148.4c-17.5,0-31.5-5.4-41.3-16.2c-24.2-26.2-22.1-80-17.8-132.8c5.9-75.1,17.3-148.5,82.5-148.5
	c17.7,0,31.6,5.4,41.4,16.1C621.3,1135.5,619.2,1187.4,614.8,1243L614.8,1243z"/>
</svg>
